<svg viewBox="0 0 100 100" xmlns="http://www.w3.org/2000/svg"><line stroke="hsl(0, 100%, 50%)" x1="87.5" x2="12.5" y1="50" y2="50"></line><line stroke="hsl(22.5, 100%, 50%)" x1="86.77944801512115" x2="13.22055198487886" y1="57.315887075604806" y2="42.684112924395194"></line><line stroke="hsl(45, 100%, 50%)" x1="84.64548246917326" x2="15.354517530826747" y1="64.35062871369087" y2="35.64937128630913"></line><line stroke="hsl(67.5, 100%, 50%)" x1="81.18011046134545" x2="18.819889538654554" y1="70.83388373823507" y2="29.16611626176492"></line><line stroke="hsl(90, 100%, 50%)" x1="76.51650429449553" x2="23.483495705504467" y1="76.51650429449553" y2="23.48349570550447"></line><line stroke="hsl(112.5, 100%, 50%)" x1="70.83388373823509" x2="29.166116261764913" y1="81.18011046134544" y2="18.819889538654557"></line><line stroke="hsl(135, 100%, 50%)" x1="64.35062871369087" x2="35.64937128630913" y1="84.64548246917326" y2="15.354517530826747"></line><line stroke="hsl(157.5, 100%, 50%)" x1="57.31588707560481" x2="42.68411292439519" y1="86.77944801512115" y2="13.22055198487886"></line><line stroke="hsl(180, 100%, 50%)" x1="50" x2="50" y1="87.5" y2="12.5"></line><line stroke="hsl(202.5, 100%, 50%)" x1="42.684112924395194" x2="57.315887075604806" y1="86.77944801512115" y2="13.22055198487886"></line><line stroke="hsl(225, 100%, 50%)" x1="35.64937128630913" x2="64.35062871369087" y1="84.64548246917326" y2="15.354517530826747"></line><line stroke="hsl(247.5, 100%, 50%)" x1="29.166116261764927" x2="70.83388373823507" y1="81.18011046134545" y2="18.819889538654547"></line><line stroke="hsl(270, 100%, 50%)" x1="23.48349570550447" x2="76.51650429449553" y1="76.51650429449553" y2="23.483495705504467"></line><line stroke="hsl(292.5, 100%, 50%)" x1="18.81988953865455" x2="81.18011046134545" y1="70.83388373823507" y2="29.16611626176492"></line><line stroke="hsl(315, 100%, 50%)" x1="15.354517530826747" x2="84.64548246917326" y1="64.35062871369087" y2="35.64937128630913"></line><line stroke="hsl(337.5, 100%, 50%)" x1="13.22055198487886" x2="86.77944801512115" y1="57.31588707560482" y2="42.68411292439518"></line></svg>