<?xml version="1.0" encoding="UTF-8" standalone="no"?>
<svg
   version="1.1"
   viewBox="0.00 0.00 1024.00 1024.00"
   id="svg3116"
   sodipodi:docname="WikiVoc-bone.svg"
   inkscape:export-filename="WikiVoc-bone2.jpg"
   inkscape:export-xdpi="96"
   inkscape:export-ydpi="96"
   inkscape:version="1.2.2 (b0a8486541, 2022-12-01)"
   xmlns:inkscape="http://www.inkscape.org/namespaces/inkscape"
   xmlns:sodipodi="http://sodipodi.sourceforge.net/DTD/sodipodi-0.dtd"
   xmlns="http://www.w3.org/2000/svg"
   xmlns:svg="http://www.w3.org/2000/svg">
  <defs
     id="defs3120" />
  <sodipodi:namedview
     id="namedview3118"
     pagecolor="#ffffff"
     bordercolor="#000000"
     borderopacity="0.25"
     inkscape:showpageshadow="2"
     inkscape:pageopacity="0.0"
     inkscape:pagecheckerboard="0"
     inkscape:deskcolor="#d1d1d1"
     showgrid="false"
     inkscape:zoom="0.59375"
     inkscape:cx="405.05263"
     inkscape:cy="502.73684"
     inkscape:window-width="1850"
     inkscape:window-height="1136"
     inkscape:window-x="0"
     inkscape:window-y="0"
     inkscape:window-maximized="1"
     inkscape:current-layer="svg3116" />
  <g
     id="g4827"
     transform="matrix(3.0761035,-0.52208064,0.482367,3.3293615,-1646.8885,-1829.4989)">
    <path
       stroke="#eed7d3"
       vector-effect="non-scaling-stroke"
       d="m 572.4,741.38 q -3.6,9.22 5.47,10.66 1.78,0.28 3.6,0.23 c 33.51,-0.94 67.54,-1 101.35,-1.42 5.78,-0.07 12.93,1.07 17.67,0.84 q 8.5,-0.4 16.31,-7.02 a 0.84,0.84 0 0 0 -0.96,-1.37 q -1.59,0.92 -3.39,2.32 -0.58,0.45 -0.88,0.12 -0.27,-0.3 -0.51,-1.03"
       id="path1102"
       style="fill:none;stroke-width:2;stroke-linecap:butt" />
    <path
       stroke="#b28c87"
       vector-effect="non-scaling-stroke"
       d="m 711.06,744.71 q 1.73,-1.44 3.5,-2.63 c 5.34,-3.58 3.27,-6.8 -0.51,-10.27 a 0.43,0.43 0 0 1 0.09,-0.71 q 4.31,-2.22 4.82,-5.83 c 0.63,-4.48 -4.63,-5.98 -8.14,-6.35 -5.62,-0.58 -9.51,-2.19 -15.35,0.09 q -10.1,3.94 -22.66,4.91 -47.52,3.67 -95.16,5.46 c -4.74,0.18 -8.34,0.76 -7.16,6.65 q 0.59,2.91 1.91,5.35"
       id="path1104"
       style="fill:none;stroke-width:2;stroke-linecap:butt" />
    <path
       stroke="#a6655f"
       vector-effect="non-scaling-stroke"
       d="m 711.06,744.71 q -1.44,4.75 -5.85,5.11 -2.27,0.19 -6.63,-1.79 c -9.43,-4.3 -17.23,-4.16 -29.59,-3.82 q -44.98,1.25 -90,2.1 -4.24,0.08 -6.59,-4.93"
       id="path1106"
       style="fill:none;stroke-width:2;stroke-linecap:butt" />
    <path
       stroke="#a6655f"
       vector-effect="non-scaling-stroke"
       d="m 573.81,734.56 c 0.12,2.54 1.46,8.9 4.94,9 q 8.85,0.26 25.24,-0.52 27.74,-1.33 55.51,-1.66 13.26,-0.16 26.5,0.47 5.87,0.29 9.76,2.06 c 2.26,1.03 8.11,3.78 10.39,2.62 1.34,-0.68 1.67,-2.64 2.15,-4.03 a 0.96,0.98 3.5 0 1 0.69,-0.62 q 3.05,-0.67 5.45,-2.65 a 2.31,2.31 0 0 0 0.45,-3.07 q -1.86,-2.76 -5.11,-4.84"
       id="path2054"
       style="fill:none;stroke-width:2;stroke-linecap:butt" />
    <path
       stroke="#b37a6b"
       vector-effect="non-scaling-stroke"
       d="m 709.78,731.32 q -0.5,-0.66 -1.03,-0.83"
       id="path2056"
       style="fill:none;stroke-width:2;stroke-linecap:butt" />
    <path
       stroke="#b48374"
       vector-effect="non-scaling-stroke"
       d="m 708.75,730.49 q -2.86,-4.24 -4.47,-9.32 -0.16,-0.48 -0.62,-0.69 -1.89,-0.86 -3.68,-0.24 -13.54,4.68 -26.52,5.85 -34.55,3.1 -69.23,4.77 -2.12,0.1 -3.19,2.92 a 1.01,1.02 2.4 0 1 -0.68,0.63 c -5.35,1.54 -11.73,1.86 -16.56,-1.29 q -4.17,-2.72 -9.33,-1.38 -0.49,0.12 -0.61,0.61 -0.26,1.01 -0.05,2.21"
       id="path2058"
       style="fill:none;stroke-width:2;stroke-linecap:butt" />
    <path
       stroke="#fde3cc"
       vector-effect="non-scaling-stroke"
       d="m 708.75,730.49 q -0.5,0.61 -1.25,0.48 -10.32,-1.74 -20.23,-0.61"
       id="path2060"
       style="fill:none;stroke-width:2;stroke-linecap:butt" />
    <path
       stroke="#efcec0"
       vector-effect="non-scaling-stroke"
       d="m 687.27,730.36 c -6.14,-0.41 -12.64,0.82 -18.99,1.57"
       id="path2062"
       style="fill:none;stroke-width:2;stroke-linecap:butt" />
    <path
       stroke="#e1b0a1"
       vector-effect="non-scaling-stroke"
       d="m 668.28,731.93 q -0.26,1.11 3.07,2.45"
       id="path2064"
       style="fill:none;stroke-width:2;stroke-linecap:butt" />
    <path
       stroke="#efcec0"
       vector-effect="non-scaling-stroke"
       d="m 671.35,734.38 q 4.3,0.88 8.88,0.81 3.11,-0.05 5.21,0.59 2.53,0.76 5,1.78 0.4,0.17 -0.03,0.24 -7.9,1.39 -14.65,0.16 c -7.89,-1.44 -13.01,-1.38 -22.69,-1.24 q -29.41,0.42 -58.77,2.15 c -5.85,0.34 -11.84,-0.26 -17.71,-0.33 a 1.77,1.77 0 0 1 -1.7,-2.23 q 0.4,-1.47 -1.08,-1.75"
       id="path2066"
       style="fill:none;stroke-width:2;stroke-linecap:butt" />
    <path
       stroke="#efc5b7"
       vector-effect="non-scaling-stroke"
       d="m 709.78,731.32 q 0.06,1.25 -1.39,1.55 -0.52,0.11 -0.9,0.47 l -2.85,2.62 q -0.39,0.36 -0.92,0.35 l -14.08,-0.41 a 0.99,0.99 0 0 1 -0.9,-0.69 l -1.47,-4.85"
       id="path2068"
       style="fill:none;stroke-width:2;stroke-linecap:butt" />
    <path
       stroke="#d3928c"
       vector-effect="non-scaling-stroke"
       d="m 671.35,734.38 q 1.89,0.29 2.75,-0.34 0.5,-0.37 0.03,-0.78 -2.14,-1.87 -5.85,-1.33"
       id="path2070"
       style="fill:none;stroke-width:2;stroke-linecap:butt" />
    <path
       stroke="#b16c61"
       vector-effect="non-scaling-stroke"
       d="m 706.21,721.37 c 0.46,2.78 1.87,6.31 4.34,7.99 a 1.11,1.12 50.5 0 0 1.08,0.1 l 4.13,-1.87 a 1.98,1.97 81.2 0 0 1.14,-1.57 c 0.55,-4.6 -7.04,-4.93 -10.23,-5.16 q -0.55,-0.04 -0.46,0.51"
       id="path2072"
       style="fill:none;stroke-width:2;stroke-linecap:butt" />
    <path
       stroke="#b07367"
       vector-effect="non-scaling-stroke"
       d="m 585.3,732.45 q 6.99,3.06 14.74,-0.07 a 0.4602445,0.4602445 0 0 0 -0.27,-0.88 q -6.53,1.31 -13.43,0.22"
       id="path2074"
       style="fill:none;stroke-width:2;stroke-linecap:butt" />
    <path
       stroke="#974640"
       vector-effect="non-scaling-stroke"
       d="m 586.34,731.72 q -1.16,-0.54 -2.14,-0.28 -0.96,0.25 -0.03,0.59 l 1.13,0.42"
       id="path2076"
       style="fill:none;stroke-width:2;stroke-linecap:butt" />
    <path
       stroke="#dda094"
       vector-effect="non-scaling-stroke"
       d="m 586.34,731.72 q -0.96,0.09 -1.04,0.73"
       id="path2078"
       style="fill:none;stroke-width:2;stroke-linecap:butt" />
    <path
       fill="#6a1913"
       d="m 711.06,744.71 q -1.44,4.75 -5.85,5.11 -2.27,0.19 -6.63,-1.79 c -9.43,-4.3 -17.23,-4.16 -29.59,-3.82 q -44.98,1.25 -90,2.1 -4.24,0.08 -6.59,-4.93 -1.32,-2.44 -1.91,-5.35 c -1.18,-5.89 2.42,-6.47 7.16,-6.65 q 47.64,-1.79 95.16,-5.46 12.56,-0.97 22.66,-4.91 c 5.84,-2.28 9.73,-0.67 15.35,-0.09 3.51,0.37 8.77,1.87 8.14,6.35 q -0.51,3.61 -4.82,5.83 a 0.43,0.43 0 0 0 -0.09,0.71 c 3.78,3.47 5.85,6.69 0.51,10.27 q -1.77,1.19 -3.5,2.63 z M 573.81,734.56 c 0.12,2.54 1.46,8.9 4.94,9 q 8.85,0.26 25.24,-0.52 27.74,-1.33 55.51,-1.66 13.26,-0.16 26.5,0.47 5.87,0.29 9.76,2.06 c 2.26,1.03 8.11,3.78 10.39,2.62 1.34,-0.68 1.67,-2.64 2.15,-4.03 a 0.98,0.96 -86.5 0 1 0.69,-0.62 q 3.05,-0.67 5.45,-2.65 a 2.31,2.31 0 0 0 0.45,-3.07 q -1.86,-2.76 -5.11,-4.84 -0.5,-0.66 -1.03,-0.83 -2.86,-4.24 -4.47,-9.32 -0.16,-0.48 -0.62,-0.69 -1.89,-0.86 -3.68,-0.24 -13.54,4.68 -26.52,5.85 -34.55,3.1 -69.23,4.77 -2.12,0.1 -3.19,2.92 a 1.02,1.01 -87.6 0 1 -0.68,0.63 c -5.35,1.54 -11.73,1.86 -16.56,-1.29 q -4.17,-2.72 -9.33,-1.38 -0.49,0.12 -0.61,0.61 -0.26,1.01 -0.05,2.21 z m 132.4,-13.19 c 0.46,2.78 1.87,6.31 4.34,7.99 a 1.12,1.11 -39.5 0 0 1.08,0.1 l 4.13,-1.87 a 1.98,1.97 81.2 0 0 1.14,-1.57 c 0.55,-4.6 -7.04,-4.93 -10.23,-5.16 q -0.55,-0.04 -0.46,0.51 z M 585.3,732.45 q 6.99,3.06 14.74,-0.07 a 0.4602445,0.4602445 0 0 0 -0.27,-0.88 q -6.53,1.31 -13.43,0.22 -1.16,-0.54 -2.14,-0.28 -0.96,0.25 -0.03,0.59 z"
       id="path3020" />
    <path
       fill="#fdecd4"
       d="m 708.75,730.49 q -0.5,0.61 -1.25,0.48 -10.32,-1.74 -20.23,-0.61 c -6.14,-0.41 -12.64,0.82 -18.99,1.57 q -0.26,1.11 3.07,2.45 4.3,0.88 8.88,0.81 3.11,-0.05 5.21,0.59 2.53,0.76 5,1.78 0.4,0.17 -0.03,0.24 -7.9,1.39 -14.65,0.16 c -7.89,-1.44 -13.01,-1.38 -22.69,-1.24 q -29.41,0.42 -58.77,2.15 c -5.85,0.34 -11.84,-0.26 -17.71,-0.33 a 1.77,1.77 0 0 1 -1.7,-2.23 q 0.4,-1.47 -1.08,-1.75 -0.21,-1.2 0.05,-2.21 0.12,-0.49 0.61,-0.61 5.16,-1.34 9.33,1.38 c 4.83,3.15 11.21,2.83 16.56,1.29 a 1.02,1.01 -87.6 0 0 0.68,-0.63 q 1.07,-2.82 3.19,-2.92 34.68,-1.67 69.23,-4.77 12.98,-1.17 26.52,-5.85 1.79,-0.62 3.68,0.24 0.46,0.21 0.62,0.69 1.61,5.08 4.47,9.32 z"
       id="path3022" />
    <path
       fill="#f7bfae"
       d="m 710.55,729.36 c -2.47,-1.68 -3.88,-5.21 -4.34,-7.99 q -0.09,-0.55 0.46,-0.51 c 3.19,0.23 10.78,0.56 10.23,5.16 a 1.98,1.97 81.2 0 1 -1.14,1.57 l -4.13,1.87 a 1.12,1.11 -39.5 0 1 -1.08,-0.1 z"
       id="path3024" />
    <path
       fill="#fcdac3"
       d="m 708.75,730.49 q 0.53,0.17 1.03,0.83 0.06,1.25 -1.39,1.55 -0.52,0.11 -0.9,0.47 l -2.85,2.62 q -0.39,0.36 -0.92,0.35 l -14.08,-0.41 a 0.99,0.99 0 0 1 -0.9,-0.69 l -1.47,-4.85 q 9.91,-1.13 20.23,0.61 0.75,0.13 1.25,-0.48 z"
       id="path3032" />
    <path
       fill="#e1b0ab"
       d="m 687.27,730.36 1.47,4.85 a 0.99,0.99 0 0 0 0.9,0.69 l 14.08,0.41 q 0.53,0.01 0.92,-0.35 l 2.85,-2.62 q 0.38,-0.36 0.9,-0.47 1.45,-0.3 1.39,-1.55 3.25,2.08 5.11,4.84 a 2.31,2.31 0 0 1 -0.45,3.07 q -2.4,1.98 -5.45,2.65 a 0.98,0.96 -86.5 0 0 -0.69,0.62 c -0.48,1.39 -0.81,3.35 -2.15,4.03 -2.28,1.16 -8.13,-1.59 -10.39,-2.62 q -3.89,-1.77 -9.76,-2.06 -13.24,-0.63 -26.5,-0.47 -27.77,0.33 -55.51,1.66 -16.39,0.78 -25.24,0.52 c -3.48,-0.1 -4.82,-6.46 -4.94,-9 q 1.48,0.28 1.08,1.75 a 1.77,1.77 0 0 0 1.7,2.23 c 5.87,0.07 11.86,0.67 17.71,0.33 q 29.36,-1.73 58.77,-2.15 c 9.68,-0.14 14.8,-0.2 22.69,1.24 q 6.75,1.23 14.65,-0.16 0.43,-0.07 0.03,-0.24 -2.47,-1.02 -5,-1.78 -2.1,-0.64 -5.21,-0.59 -4.58,0.07 -8.88,-0.81 1.89,0.29 2.75,-0.34 0.5,-0.37 0.03,-0.78 -2.14,-1.87 -5.85,-1.33 c 6.35,-0.75 12.85,-1.98 18.99,-1.57 z"
       id="path3034" />
    <path
       fill="#c4736d"
       d="m 586.34,731.72 q -0.96,0.09 -1.04,0.73 l -1.13,-0.42 q -0.93,-0.34 0.03,-0.59 0.98,-0.26 2.14,0.28 z"
       id="path3036" />
    <path
       fill="#f6ccbb"
       d="m 585.3,732.45 q 0.08,-0.64 1.04,-0.73 6.9,1.09 13.43,-0.22 a 0.4602445,0.4602445 0 0 1 0.27,0.88 q -7.75,3.13 -14.74,0.07 z"
       id="path3038" />
    <path
       fill="#c4736d"
       d="m 668.28,731.93 q 3.71,-0.54 5.85,1.33 0.47,0.41 -0.03,0.78 -0.86,0.63 -2.75,0.34 -3.33,-1.34 -3.07,-2.45 z"
       id="path3042" />
    <path
       fill="#e1b0ab"
       d="m 572.4,741.38 q 2.35,5.01 6.59,4.93 45.02,-0.85 90,-2.1 c 12.36,-0.34 20.16,-0.48 29.59,3.82 q 4.36,1.98 6.63,1.79 4.41,-0.36 5.85,-5.11 0.24,0.73 0.51,1.03 0.3,0.33 0.88,-0.12 1.8,-1.4 3.39,-2.32 a 0.84,0.84 0 0 1 0.96,1.37 q -7.81,6.62 -16.31,7.02 c -4.74,0.23 -11.89,-0.91 -17.67,-0.84 -33.81,0.42 -67.84,0.48 -101.35,1.42 q -1.82,0.05 -3.6,-0.23 -9.07,-1.44 -5.47,-10.66 z"
       id="path3046"
       style="fill:#b8b3bc;fill-opacity:1" />
  </g>
  <g
     id="g4800"
     transform="matrix(2.5171806,0,0,2.6764871,-74.967144,-1502.2653)">
    <path
       stroke="#a78784"
       vector-effect="non-scaling-stroke"
       d="m 206.17,736.92 q -20.42,-9.36 -40.61,-22.09"
       id="path18"
       style="fill:none;stroke-width:2;stroke-linecap:butt" />
    <path
       stroke="#b28c87"
       vector-effect="non-scaling-stroke"
       d="m 165.56,714.83 c -7.75,-5.23 -10.2,-11.87 -13.43,-21.18 q -2.09,-6.05 -7.86,-14.46 -13.86,-20.23 -38.39,-14.63 -1.87,0.42 -5.11,2.1"
       id="path20"
       style="fill:none;stroke-width:2;stroke-linecap:butt" />
    <path
       stroke="#a78784"
       vector-effect="non-scaling-stroke"
       d="m 100.77,666.66 c -11.16,5.25 -12.73,13.64 -13.15,24.59 -0.09,2.24 -1.32,3.13 -3.4,3.25 -19.99,1.15 -31.79,17.3 -33.86,36.03 Q 48.31,749.02 60.45,762"
       id="path22"
       style="fill:none;stroke-width:2;stroke-linecap:butt" />
    <path
       stroke="#a78784"
       vector-effect="non-scaling-stroke"
       d="M 404.58,854.69 C 416.09,844.93 418.27,828 414.78,814 q -5.74,-23.02 -26.53,-32.86 c -3.8,-1.8 -10.13,-3.33 -13.76,-2.42 -9.16,2.32 -21.26,5.23 -30.99,3.33"
       id="path26"
       style="fill:none;stroke-width:2;stroke-linecap:butt" />
    <path
       stroke="#866265"
       vector-effect="non-scaling-stroke"
       d="m 343.5,782.05 q -1.57,0.1 -4.5,-0.41 C 292.7,773.56 248.73,757.3 206.17,736.92"
       id="path562"
       style="fill:none;stroke-width:2;stroke-linecap:butt" />
    <path
       stroke="#9f574c"
       vector-effect="non-scaling-stroke"
       d="m 100.87,671.45 c -7.13,3.79 -9.46,12.18 -9.09,19.69 a 0.7,0.71 7.3 0 0 0.48,0.63 q 0.83,0.27 1.5,-0.22 0.98,-0.74 0.71,0.46 -0.27,1.2 -1.44,1.68 -0.54,0.22 -0.58,0.8 -0.2,2.84 -3.74,2.99"
       id="path820"
       style="fill:none;stroke-width:2;stroke-linecap:butt" />
    <path
       stroke="#a87b70"
       vector-effect="non-scaling-stroke"
       d="m 88.71,697.48 c -10.96,1.28 -20.52,4.83 -26.7,14.44"
       id="path822"
       style="fill:none;stroke-width:2;stroke-linecap:butt" />
    <path
       stroke="#8c5150"
       vector-effect="non-scaling-stroke"
       d="m 62.01,711.92 c -9.52,13.78 -10.63,34.6 1.75,46.7 10.55,10.32 26.47,11.7 40.11,6.42 6.55,-2.54 14.11,-6.46 20.85,-6.96 q 9.9,-0.73 19.62,3.04 c 41.69,16.17 82.01,35.18 121.73,55.67 13.37,6.9 21.51,10.93 27.33,22.9 2.66,5.46 4.82,14.34 6.68,20.01 4.56,13.91 15.65,25.23 30.89,26.75 q 18.85,1.89 29.77,-10.76 c 11.4,-13.2 8.67,-29.61 3.38,-44.65"
       id="path824"
       style="fill:none;stroke-width:2;stroke-linecap:butt" />
    <path
       stroke="#a56e65"
       vector-effect="non-scaling-stroke"
       d="m 364.12,831.04 -0.69,-2.59"
       id="path826"
       style="fill:none;stroke-width:2;stroke-linecap:butt" />
    <path
       stroke="#8c5150"
       vector-effect="non-scaling-stroke"
       d="m 363.43,828.45 -0.89,-3.59"
       id="path828"
       style="fill:none;stroke-width:2;stroke-linecap:butt" />
    <path
       stroke="#a87b70"
       vector-effect="non-scaling-stroke"
       d="m 362.54,824.86 c -0.13,-7.12 -2.47,-14.91 -9.63,-17.92 q -0.06,-0.02 -4.4,-1.09 c -6.01,-1.49 -8.98,-7.41 -3.5,-11.95 q 1.55,-1.28 2.51,-1.63 c 5.89,-2.14 11.98,-3.89 15.41,-6.94 q 0.59,-0.53 -0.18,-0.4 c -9.59,1.61 -18.39,2.14 -28.29,0.6 -20.21,-3.15 -39.22,-8.97 -58.68,-14.82"
       id="path830"
       style="fill:none;stroke-width:2;stroke-linecap:butt" />
    <path
       stroke="#8a5b5d"
       vector-effect="non-scaling-stroke"
       d="M 275.78,770.71 Q 239.77,757.84 210.55,744.67 196.2,738.2 178.96,728.55"
       id="path832"
       style="fill:none;stroke-width:2;stroke-linecap:butt" />
    <path
       stroke="#a87b70"
       vector-effect="non-scaling-stroke"
       d="m 178.96,728.55 -12.27,-7.53"
       id="path834"
       style="fill:none;stroke-width:2;stroke-linecap:butt" />
    <path
       stroke="#866265"
       vector-effect="non-scaling-stroke"
       d="m 404.58,854.69 q -14.67,10.51 -31.47,3.59 a 0.83,0.83 0 0 0 -1.14,0.68 c -3.33,33.8 -46.45,43.05 -67.11,18.09 -7.64,-9.23 -10.25,-20.48 -13.35,-31.8 C 287.5,830.59 271.63,824.63 258.58,818 q -54.17,-27.5 -107.83,-50 -7.99,-3.36 -17.18,-5.42 c -9.04,-2.02 -16.2,1.18 -24.82,5.16 -15.98,7.38 -34.65,7.03 -48.3,-5.74"
       id="path836"
       style="fill:none;stroke-width:2;stroke-linecap:butt" />
    <path
       stroke="#c39b9f"
       vector-effect="non-scaling-stroke"
       d="m 168.96,749.03 q 0.47,1.32 2.54,1.14 5.01,-0.43 7.98,1.08"
       id="path858"
       style="fill:none;stroke-width:2;stroke-linecap:butt" />
    <path
       stroke="#c58280"
       vector-effect="non-scaling-stroke"
       d="m 179.48,751.25 q -1.01,0.59 1.6,1.91 17.91,8.98 35.88,17.82 c 7.12,3.51 13.95,7.37 20.86,11.18 a 0.72,0.72 0 0 0 1.06,-0.68 l -0.03,-0.29"
       id="path860"
       style="fill:none;stroke-width:2;stroke-linecap:butt" />
    <path
       stroke="#c39b9f"
       vector-effect="non-scaling-stroke"
       d="m 238.85,781.19 10.06,4.98"
       id="path862"
       style="fill:none;stroke-width:2;stroke-linecap:butt" />
    <path
       stroke="#e1bcb2"
       vector-effect="non-scaling-stroke"
       d="m 248.91,786.17 q 10.06,5.26 20.2,10.49 c 13.51,6.97 30.67,17.45 36.93,31.99 1.83,4.26 1.75,9.77 2.94,14.58 q 0.13,0.52 0.57,0.83 15.27,10.88 34.68,9.08 6.46,-0.6 10.64,-4.55 0.32,-0.31 0.76,-0.4 l 0.7,-0.14 q 0.58,-0.12 0.47,-0.7 -1.64,-8.7 2.22,-15.59 2.94,-5.24 3.52,-6.9"
       id="path864"
       style="fill:none;stroke-width:2;stroke-linecap:butt" />
    <path
       stroke="#deafa7"
       vector-effect="non-scaling-stroke"
       d="m 363.43,828.45 -0.17,-0.52 a 0.43,0.43 0 0 0 -0.81,0 q -3.08,8.58 -4.44,17.62 a 0.31,0.31 0 0 0 0.55,0.23 c 1.89,-2.46 3.6,-4.54 4.28,-7.68 q 0.77,-3.52 1.28,-7.06"
       id="path866"
       style="fill:none;stroke-width:2;stroke-linecap:butt" />
    <path
       stroke="#5f1511"
       vector-effect="non-scaling-stroke"
       d="m 165.56,714.83 q 0.61,1.29 2.08,1.71 a 0.75,0.59 46.7 0 1 0.11,1.33 h -0.36 a 0.08,0.08 0 0 0 -0.05,0.14 l 0.53,0.44 a 0.18,0.19 59.4 0 1 -0.09,0.32 l -2.29,0.45 a 0.2,0.23 40 0 0 0,0.43 q 0.14,-0.02 0.26,-0.01 0.62,0.03 0.83,0.3 0.41,0.53 0.11,1.08"
       id="path868"
       style="fill:none;stroke-width:2;stroke-linecap:butt" />
    <path
       stroke="#b48072"
       vector-effect="non-scaling-stroke"
       d="m 166.69,721.02 q -12.74,-6.76 -16.64,-18.99 -3.1,-9.74 -8.41,-18.35 c -7.99,-12.97 -24.46,-20.31 -38.79,-12.72"
       id="path870"
       style="fill:none;stroke-width:2;stroke-linecap:butt" />
    <path
       stroke="#aa5b4f"
       vector-effect="non-scaling-stroke"
       d="m 102.85,670.96 -1.98,0.49"
       id="path872"
       style="fill:none;stroke-width:2;stroke-linecap:butt" />
    <path
       stroke="#5f1511"
       vector-effect="non-scaling-stroke"
       d="m 100.87,671.45 -0.1,-4.79"
       id="path874"
       style="fill:none;stroke-width:2;stroke-linecap:butt" />
    <path
       stroke="#e1bcb2"
       vector-effect="non-scaling-stroke"
       d="m 168.96,749.03 q -3.99,-2.84 -7.23,-4.64 -13.42,-7.47 -27.02,-14.6 -5.64,-2.95 -12.96,-1.74 c -4.14,0.69 -10.07,3.34 -15.49,3.3 -13.19,-0.11 -34.61,5.29 -44.06,-7.51 q -1.48,-2 -1.44,-4.51 0.06,-3.58 1.25,-7.41"
       id="path878"
       style="fill:none;stroke-width:2;stroke-linecap:butt" />
    <path
       stroke="#f4c2ae"
       vector-effect="non-scaling-stroke"
       d="m 88.71,697.48 q 6.39,0.39 12.26,-0.77 a 0.84,0.84 0 0 0 0.38,-1.46 q -2.86,-2.4 -6.56,-1.42 a 0.37,0.37 0 0 1 -0.41,-0.54 q 3.95,-6.63 11.35,-8.72 0.55,-0.16 0.01,-0.33 -2.16,-0.69 -4.11,0.4 a 0.75,0.75 0 0 1 -1.1,-0.48 q -1.76,-7.29 2.32,-13.2"
       id="path880"
       style="fill:none;stroke-width:2;stroke-linecap:butt" />
    <path
       stroke="#c38c8d"
       vector-effect="non-scaling-stroke"
       d="M 238.85,781.19 179.48,751.25"
       id="path884"
       style="fill:none;stroke-width:2;stroke-linecap:butt" />
    <path
       stroke="#95534f"
       vector-effect="non-scaling-stroke"
       d="m 350.72,800.48 q -1.29,-0.72 -0.9,-1.4"
       id="path2000"
       style="fill:none;stroke-width:2;stroke-linecap:butt" />
    <path
       stroke="#a5685e"
       vector-effect="non-scaling-stroke"
       d="m 349.82,799.08 8.42,-8.98 q 0.33,-0.35 -0.15,-0.25 -3.55,0.75 -6.55,3.17"
       id="path2002"
       style="fill:none;stroke-width:2;stroke-linecap:butt" />
    <path
       stroke="#95534f"
       vector-effect="non-scaling-stroke"
       d="m 351.54,793.02 c -2.88,0.83 -11.47,5.88 -5.63,9.07 q 4.18,2.28 8.7,3.73 2.82,0.91 4.43,2.14 2.75,2.1 3.37,3.75 1.81,4.85 3.27,9.08"
       id="path2004"
       style="fill:none;stroke-width:2;stroke-linecap:butt" />
    <path
       stroke="#7c2a20"
       vector-effect="non-scaling-stroke"
       d="m 365.68,820.79 q 0.45,1.36 -0.12,1.87"
       id="path2006"
       style="fill:none;stroke-width:2;stroke-linecap:butt" />
    <path
       stroke="#95534f"
       vector-effect="non-scaling-stroke"
       d="m 365.56,822.66 q 0.88,4.94 3.2,11.84 2.28,6.8 3.69,16.89 0.07,0.52 0.44,0.88 2.34,2.25 5.61,3.07 c 22.81,5.71 35.95,-13.4 32.33,-33.92"
       id="path2008"
       style="fill:none;stroke-width:2;stroke-linecap:butt" />
    <path
       stroke="#a5685e"
       vector-effect="non-scaling-stroke"
       d="m 410.83,821.42 q -1.12,-7.78 -4.41,-15.66"
       id="path2010"
       style="fill:none;stroke-width:2;stroke-linecap:butt" />
    <path
       stroke="#a87b70"
       vector-effect="non-scaling-stroke"
       d="m 406.42,805.76 q -6.73,-14.43 -21.89,-21.04 c -8.27,-3.62 -14.14,-1.91 -21.35,2.87 -3,1.98 -4.65,4.8 -6.6,7.71 q -1.61,2.4 -5.86,5.18"
       id="path2012"
       style="fill:none;stroke-width:2;stroke-linecap:butt" />
    <path
       stroke="#fad3c0"
       vector-effect="non-scaling-stroke"
       d="m 406.42,805.76 -0.44,4.13"
       id="path2014"
       style="fill:none;stroke-width:2;stroke-linecap:butt" />
    <path
       stroke="#eabeb0"
       vector-effect="non-scaling-stroke"
       d="m 405.98,809.89 c -6.73,11.83 -22.17,10.66 -32.59,5.43 q -8.13,-4.09 -10.59,-6.39 -3.61,-3.37 -7.76,-6.05 -0.48,-0.31 -1.06,-0.28 l -3.73,0.16 a 0.65,0.65 0 0 1 -0.53,-1.07 l 1,-1.21"
       id="path2016"
       style="fill:none;stroke-width:2;stroke-linecap:butt" />
    <path
       stroke="#e7aa9f"
       vector-effect="non-scaling-stroke"
       d="m 405.98,809.89 q 1.25,0.94 1.35,3.18 c 0.16,3.51 -3.11,8.44 -5.31,11.04 a 0.62,0.63 31 0 0 0.24,0.98 l 0.65,0.26"
       id="path2018"
       style="fill:none;stroke-width:2;stroke-linecap:butt" />
    <path
       stroke="#be6c61"
       vector-effect="non-scaling-stroke"
       d="m 402.91,825.35 c -11.28,10.74 -27.99,6.77 -37.23,-4.56"
       id="path2020"
       style="fill:none;stroke-width:2;stroke-linecap:butt" />
    <path
       stroke="#e7aa9f"
       vector-effect="non-scaling-stroke"
       d="m 410.83,821.42 c -3.06,5.04 -6.66,9.87 -12.77,10.97 q -0.57,0.1 -0.69,-0.46 -0.06,-0.26 0.07,-0.62"
       id="path2022"
       style="fill:none;stroke-width:2;stroke-linecap:butt" />
    <path
       stroke="#ce8170"
       vector-effect="non-scaling-stroke"
       d="m 397.44,831.31 c 7.02,-3.57 9.05,-6.77 11.69,-14.31 q 0.15,-0.44 -0.33,-0.59 -0.4,-0.12 -0.54,0.27 -1.82,4.99 -5.35,8.67"
       id="path2024"
       style="fill:none;stroke-width:2;stroke-linecap:butt" />
    <path
       stroke="#e7aa9f"
       vector-effect="non-scaling-stroke"
       d="m 349.82,799.08 -2.1,1.27 a 1.15,1.16 6.3 0 1 -1.43,-1.79 l 5.25,-5.54"
       id="path2026"
       style="fill:none;stroke-width:2;stroke-linecap:butt" />
    <path
       stroke="#be6c61"
       vector-effect="non-scaling-stroke"
       d="m 397.44,831.31 q -8,2.05 -16.37,1.29 c -6.86,-0.62 -10.93,-5.62 -15.51,-9.94"
       id="path2028"
       style="fill:none;stroke-width:2;stroke-linecap:butt" />
    <path
       stroke="#e1ad9f"
       vector-effect="non-scaling-stroke"
       d="m 140.84,701.52 q 0.65,1.59 1.88,2.39 a 0.35,0.34 3.5 0 0 0.5,-0.44 c -4,-8.03 -6.09,-15.62 -13.39,-21.36 q -2.52,-1.98 -0.41,0.44 6.86,7.83 11.42,18.97"
       id="path2030"
       style="fill:none;stroke-width:2;stroke-linecap:butt" />
    <path
       stroke="#e1ad9f"
       vector-effect="non-scaling-stroke"
       d="m 114.4013,701.0907 a 3.38,0.95 23 0 0 -2.7401,-2.1952 3.38,0.95 23 0 0 -3.4825,-0.4462 3.38,0.95 23 0 0 2.7401,2.1952 3.38,0.95 23 0 0 3.4825,0.4462"
       id="path2032"
       style="fill:none;stroke-width:2;stroke-linecap:butt" />
    <path
       stroke="#c58280"
       vector-effect="non-scaling-stroke"
       d="m 83.4,744.32 c -10.04,-1.36 -22,-7.13 -24.95,-17.49 q -0.14,-0.49 -0.32,-0.01 c -1.1,2.9 1.37,6.49 3.43,8.6 q 6.91,7.03 16.46,9.47 12.92,3.29 25.98,0.64 1.5,-0.3 2.06,-0.84 a 0.2,0.2 0 0 0 -0.17,-0.35 q -10.52,1.6 -22.49,-0.02"
       id="path2046"
       style="fill:none;stroke-width:2;stroke-linecap:butt" />
    <path
       stroke="#c58280"
       vector-effect="non-scaling-stroke"
       d="m 305.66,842.63 q -4.79,-9.78 -10.29,-18.54 c -4.26,-6.78 -8.4,-9.7 -15.39,-13.45 q -3.2,-1.7 -8.08,-4 -34.13,-16.07 -68.17,-32.33 -5.59,-2.67 -18.22,-8.19 -14.41,-6.3 -28.26,-13.76 c -8.86,-4.78 -30.65,-16.69 -35.97,-0.92 q -0.85,2.51 -1.75,5.1 -0.17,0.48 0.32,0.61 1.36,0.36 1.78,-0.87 c 2.18,-6.51 3.8,-12.37 12.37,-10.98 q 7.84,1.27 15.68,5.09 17.33,8.45 34.87,16.41 c 14.64,6.65 29.27,13.77 43.72,20.93 6.98,3.46 14.74,6.59 21.05,9.85 q 16.04,8.27 32.45,15.76 8.38,3.82 12.83,11.78 4.41,7.87 8.74,15.77 0.76,1.41 1.8,2.18 a 0.35,0.35 0 0 0 0.52,-0.44"
       id="path2048"
       style="fill:none;stroke-width:2;stroke-linecap:butt" />
    <path
       stroke="#c58280"
       vector-effect="non-scaling-stroke"
       d="m 310.86,850.14 q -0.53,-0.84 -0.98,-0.34 a 0.43,0.46 51.7 0 0 -0.07,0.49 c 4.04,8.09 12.9,14.8 22.25,13.92 a 0.33,0.33 0 0 0 0.03,-0.65 c -8.86,-1.65 -16.04,-5.15 -21.23,-13.42"
       id="path2050"
       style="fill:none;stroke-width:2;stroke-linecap:butt" />
    <path
       stroke="#deafa7"
       vector-effect="non-scaling-stroke"
       d="m 354.96,855.97 q -5.25,5.59 -12.64,7.61 -0.59,0.16 -0.06,0.46 0.36,0.22 0.98,0.09 c 3.42,-0.72 14.13,-4.98 13.65,-9.34 q -0.06,-0.52 -0.46,-0.18 -0.81,0.67 -1.47,1.36"
       id="path2052"
       style="fill:none;stroke-width:2;stroke-linecap:butt" />
    <path
       stroke="#fad3c0"
       vector-effect="non-scaling-stroke"
       d="m 294.18,792.95 c -1.09,-0.64 -3.48,-1.35 -4.75,-1.4 q -0.45,-0.02 -0.7,0.35 -2.16,3.29 -0.83,6.89 0.19,0.5 0.64,0.78 2.54,1.51 4.75,0.88 c 3.81,-1.09 4.07,-5.63 0.89,-7.5"
       id="path2092"
       style="fill:none;stroke-width:2;stroke-linecap:butt" />
    <path
       stroke="#efcbbe"
       vector-effect="non-scaling-stroke"
       d="m 327.52,800.92 10.05,-0.75 a 0.94,0.94 0 0 0 0.87,-1.02 l -0.29,-3.34 a 0.8,0.8 0 0 0 -0.84,-0.74 l -8.91,0.47 a 1.29,1.28 12.5 0 0 -1.06,0.67 q -1.08,1.99 -0.58,4.16 0.14,0.6 0.76,0.55"
       id="path2094"
       style="fill:none;stroke-width:2;stroke-linecap:butt" />
    <path
       stroke="#e1ad9f"
       vector-effect="non-scaling-stroke"
       d="m 325.53,815.12 c 6.05,-0.64 25.22,0.93 16.72,12.57 a 0.3,0.3 0 0 0 0.4,0.43 c 3.68,-2.19 3.93,-5.88 1.73,-9.18 -3.82,-5.77 -13.66,-5.74 -19.4,-3.76 a 0.1,0.1 0 0 0 0,0.19 q 0.15,0.05 0.24,-0.07 0.12,-0.15 0.31,-0.18"
       id="path2096"
       style="fill:none;stroke-width:2;stroke-linecap:butt" />
    <path
       fill="#6a1913"
       d="m 165.56,714.83 q 0.61,1.29 2.08,1.71 a 0.75,0.59 46.7 0 1 0.11,1.33 h -0.36 a 0.08,0.08 0 0 0 -0.05,0.14 l 0.53,0.44 a 0.19,0.18 -30.6 0 1 -0.09,0.32 l -2.29,0.45 a 0.23,0.2 -50 0 0 0,0.43 q 0.14,-0.02 0.26,-0.01 0.62,0.03 0.83,0.3 0.41,0.53 0.11,1.08 -12.74,-6.76 -16.64,-18.99 -3.1,-9.74 -8.41,-18.35 c -7.99,-12.97 -24.46,-20.31 -38.79,-12.72 l -1.98,0.49 -0.1,-4.79 q 3.24,-1.68 5.11,-2.1 24.53,-5.6 38.39,14.63 5.77,8.41 7.86,14.46 c 3.23,9.31 5.68,15.95 13.43,21.18 z"
       id="path2980" />
    <path
       fill="#53100e"
       d="m 100.77,666.66 0.1,4.79 c -7.13,3.79 -9.46,12.18 -9.09,19.69 a 0.71,0.7 -82.7 0 0 0.48,0.63 q 0.83,0.27 1.5,-0.22 0.98,-0.74 0.71,0.46 -0.27,1.2 -1.44,1.68 -0.54,0.22 -0.58,0.8 -0.2,2.84 -3.74,2.99 c -10.96,1.28 -20.52,4.83 -26.7,14.44 -9.52,13.78 -10.63,34.6 1.75,46.7 10.55,10.32 26.47,11.7 40.11,6.42 6.55,-2.54 14.11,-6.46 20.85,-6.96 q 9.9,-0.73 19.62,3.04 c 41.69,16.17 82.01,35.18 121.73,55.67 13.37,6.9 21.51,10.93 27.33,22.9 2.66,5.46 4.82,14.34 6.68,20.01 4.56,13.91 15.65,25.23 30.89,26.75 q 18.85,1.89 29.77,-10.76 c 11.4,-13.2 8.67,-29.61 3.38,-44.65 l -0.69,-2.59 -0.89,-3.59 c -0.13,-7.12 -2.47,-14.91 -9.63,-17.92 q -0.06,-0.02 -4.4,-1.09 c -6.01,-1.49 -8.98,-7.41 -3.5,-11.95 q 1.55,-1.28 2.51,-1.63 c 5.89,-2.14 11.98,-3.89 15.41,-6.94 q 0.59,-0.53 -0.18,-0.4 c -9.59,1.61 -18.39,2.14 -28.29,0.6 -20.21,-3.15 -39.22,-8.97 -58.68,-14.82 Q 239.77,757.84 210.55,744.67 196.2,738.2 178.96,728.55 l -12.27,-7.53 q 0.3,-0.55 -0.11,-1.08 -0.21,-0.27 -0.83,-0.3 -0.12,-0.01 -0.26,0.01 a 0.23,0.2 -50 0 1 0,-0.43 l 2.29,-0.45 a 0.19,0.18 -30.6 0 0 0.09,-0.32 l -0.53,-0.44 a 0.08,0.08 0 0 1 0.05,-0.14 h 0.36 a 0.75,0.59 46.7 0 0 -0.11,-1.33 q -1.47,-0.42 -2.08,-1.71 20.19,12.73 40.61,22.09 c 42.56,20.38 86.53,36.64 132.83,44.72 q 2.93,0.51 4.5,0.41 c 9.73,1.9 21.83,-1.01 30.99,-3.33 3.63,-0.91 9.96,0.62 13.76,2.42 q 20.79,9.84 26.53,32.86 c 3.49,14 1.31,30.93 -10.2,40.69 q -14.67,10.51 -31.47,3.59 a 0.83,0.83 0 0 0 -1.14,0.68 c -3.33,33.8 -46.45,43.05 -67.11,18.09 -7.64,-9.23 -10.25,-20.48 -13.35,-31.8 C 287.5,830.59 271.63,824.63 258.58,818 q -54.17,-27.5 -107.83,-50 -7.99,-3.36 -17.18,-5.42 c -9.04,-2.02 -16.2,1.18 -24.82,5.16 -15.98,7.38 -34.65,7.03 -48.3,-5.74 Q 48.31,749.02 50.36,730.53 c 2.07,-18.73 13.87,-34.88 33.86,-36.03 2.08,-0.12 3.31,-1.01 3.4,-3.25 0.42,-10.95 1.99,-19.34 13.15,-24.59 z m 249.95,133.82 q -1.29,-0.72 -0.9,-1.4 l 8.42,-8.98 q 0.33,-0.35 -0.15,-0.25 -3.55,0.75 -6.55,3.17 c -2.88,0.83 -11.47,5.88 -5.63,9.07 q 4.18,2.28 8.7,3.73 2.82,0.91 4.43,2.14 2.75,2.1 3.37,3.75 1.81,4.85 3.27,9.08 0.45,1.36 -0.12,1.87 0.88,4.94 3.2,11.84 2.28,6.8 3.69,16.89 0.07,0.52 0.44,0.88 2.34,2.25 5.61,3.07 c 22.81,5.71 35.95,-13.4 32.33,-33.92 q -1.12,-7.78 -4.41,-15.66 -6.73,-14.43 -21.89,-21.04 c -8.27,-3.62 -14.14,-1.91 -21.35,2.87 -3,1.98 -4.65,4.8 -6.6,7.71 q -1.61,2.4 -5.86,5.18 z"
       id="path2988" />
    <path
       fill="#fde6d1"
       d="m 168.96,749.03 c -2.66,-1.89333 -5.07,-3.44 -7.23,-4.64 -8.94667,-4.98 -17.95333,-9.84667 -27.02,-14.6 -3.76,-1.96667 -8.08,-2.54667 -12.96,-1.74 -4.14,0.69 -10.07,3.34 -15.49,3.3 -13.19,-0.11 -34.61,5.29 -44.06,-7.51 -0.986667,-1.33333 -1.466667,-2.83667 -1.44,-4.51 0.04,-2.38667 0.456667,-4.85667 1.25,-7.41 6.18,-9.61 15.74,-13.16 26.7,-14.44 4.26,0.26 8.346667,0.003 12.26,-0.77 0.68439,-0.13942 0.90958,-1.00461 0.38,-1.46 -1.906667,-1.6 -4.093333,-2.07333 -6.56,-1.42 -0.313679,0.0758 -0.567308,-0.25822 -0.41,-0.54 2.633333,-4.42 6.41667,-7.32667 11.35,-8.72 0.36667,-0.10667 0.37,-0.21667 0.01,-0.33 -1.44,-0.46 -2.81,-0.32667 -4.11,0.4 -0.43499,0.24677 -0.98508,0.007 -1.1,-0.48 -1.173333,-4.86 -0.4,-9.26 2.32,-13.2 14.33,-7.59 30.8,-0.25 38.79,12.72 3.54,5.74 6.34333,11.85667 8.41,18.35 2.6,8.15333 8.14667,14.48333 16.64,18.99 l 12.27,7.53 c 31.69877,19.03356 66.88502,30.5652 101.30955,43.73536 17.68387,5.27024 35.96985,10.40471 54.19045,13.24464 9.9,1.54 18.7,1.01 28.29,-0.6 0.51333,-0.0867 0.57333,0.0467 0.18,0.4 -3.43,3.05 -9.52,4.8 -15.41,6.94 -0.64,0.23333 -1.47667,0.77667 -2.51,1.63 -5.48,4.54 -2.51,10.46 3.5,11.95 2.89333,0.71333 4.36,1.07667 4.4,1.09 7.16,3.01 9.5,10.8 9.63,17.92 -0.38667,1.10667 -1.56,3.40667 -3.52,6.9 -2.57333,4.59333 -3.31333,9.79 -2.22,15.59 0.0733,0.38667 -0.0833,0.62 -0.47,0.7 l -0.7,0.14 c -0.29333,0.06 -0.54667,0.19333 -0.76,0.4 -2.78667,2.63333 -6.33333,4.15 -10.64,4.55 -12.94,1.2 -24.5,-1.82667 -34.68,-9.08 -0.29333,-0.20667 -0.48333,-0.48333 -0.57,-0.83 -1.19,-4.81 -1.11,-10.32 -2.94,-14.58 -6.26,-14.54 -23.42,-25.02 -36.93,-31.99 -6.76,-3.48667 -13.49333,-6.98333 -20.2,-10.49 z m -28.12,-47.51 c 0.43333,1.06 1.06,1.85667 1.88,2.39 0.30103,0.18828 0.66329,-0.1305 0.5,-0.44 -4,-8.03 -6.09,-15.62 -13.39,-21.36 -1.68,-1.32 -1.81667,-1.17333 -0.41,0.44 4.57333,5.22 8.38,11.54333 11.42,18.97 z m -26.4387,-0.4293 c 0.2051,-0.48294 -1.02171,-1.46579 -2.7401,-2.1952 -1.71832,-0.72938 -3.27748,-0.92915 -3.4825,-0.4462 -0.2051,0.48294 1.02171,1.46579 2.7401,2.1952 1.71832,0.72938 3.27748,0.92915 3.4825,0.4462 z"
       id="path2990"
       sodipodi:nodetypes="cccccccccccccccccccccccccccccccccccccccccccccccccsssss" />
    <path
       fill="#ea9d8a"
       d="m 102.85,670.96 q -4.08,5.91 -2.32,13.2 a 0.75,0.75 0 0 0 1.1,0.48 q 1.95,-1.09 4.11,-0.4 0.54,0.17 -0.01,0.33 -7.4,2.09 -11.35,8.72 a 0.37,0.37 0 0 0 0.41,0.54 q 3.7,-0.98 6.56,1.42 a 0.84,0.84 0 0 1 -0.38,1.46 q -5.87,1.16 -12.26,0.77 3.54,-0.15 3.74,-2.99 0.04,-0.58 0.58,-0.8 1.17,-0.48 1.44,-1.68 0.27,-1.2 -0.71,-0.46 -0.67,0.49 -1.5,0.22 a 0.71,0.7 -82.7 0 1 -0.48,-0.63 c -0.37,-7.51 1.96,-15.9 9.09,-19.69 z"
       id="path2996" />
    <path
       fill="#c4736d"
       d="m 140.84,701.52 q -4.56,-11.14 -11.42,-18.97 -2.11,-2.42 0.41,-0.44 c 7.3,5.74 9.39,13.33 13.39,21.36 a 0.35,0.34 3.5 0 1 -0.5,0.44 q -1.23,-0.8 -1.88,-2.39 z"
       id="path3010" />
    <ellipse
       fill="#c4736d"
       cx="0"
       cy="0"
       transform="rotate(23,-1664.0947,623.38891)"
       rx="3.3800001"
       ry="0.94999999"
       id="ellipse3016" />
    <path
       fill="#c59192"
       d="m 62.01,711.92 q -1.19,3.83 -1.25,7.41 -0.04,2.51 1.44,4.51 c 9.45,12.8 30.87,7.4 44.06,7.51 5.42,0.04 11.35,-2.61 15.49,-3.3 q 7.32,-1.21 12.96,1.74 13.6,7.13 27.02,14.6 3.24,1.8 7.23,4.64 0.47,1.32 2.54,1.14 5.01,-0.43 7.98,1.08 -1.01,0.59 1.6,1.91 17.91,8.98 35.88,17.82 c 7.12,3.51 13.95,7.37 20.86,11.18 a 0.72,0.72 0 0 0 1.06,-0.68 l -0.03,-0.29 10.06,4.98 q 10.06,5.26 20.2,10.49 c 13.51,6.97 30.67,17.45 36.93,31.99 1.83,4.26 1.75,9.77 2.94,14.58 q 0.13,0.52 0.57,0.83 15.27,10.88 34.68,9.08 6.46,-0.6 10.64,-4.55 0.32,-0.31 0.76,-0.4 l 0.7,-0.14 q 0.58,-0.12 0.47,-0.7 -1.64,-8.7 2.22,-15.59 2.94,-5.24 3.52,-6.9 l 0.89,3.59 -0.17,-0.52 a 0.43,0.43 0 0 0 -0.81,0 q -3.08,8.58 -4.44,17.62 a 0.31,0.31 0 0 0 0.55,0.23 c 1.89,-2.46 3.6,-4.54 4.28,-7.68 q 0.77,-3.52 1.28,-7.06 c 5.29,15.04 8.02,31.45 -3.38,44.65 q -10.92,12.65 -29.77,10.76 c -15.24,-1.52 -26.33,-12.84 -30.89,-26.75 -1.86,-5.67 -4.02,-14.55 -6.68,-20.01 -5.82,-11.97 -13.96,-16 -27.33,-22.9 -39.72,-20.49 -80.04,-39.5 -121.73,-55.67 q -9.72,-3.77 -19.62,-3.04 c -6.74,0.5 -14.3,4.42 -20.85,6.96 -13.64,5.28 -29.56,3.9 -40.11,-6.42 -12.38,-12.1 -11.27,-32.92 -1.75,-46.7 z m 21.39,32.4 c -10.04,-1.36 -22,-7.13 -24.95,-17.49 q -0.14,-0.49 -0.32,-0.01 c -1.1,2.9 1.37,6.49 3.43,8.6 q 6.91,7.03 16.46,9.47 12.92,3.29 25.98,0.64 1.5,-0.3 2.06,-0.84 a 0.2,0.2 0 0 0 -0.17,-0.35 q -10.52,1.6 -22.49,-0.02 z m 222.26,98.31 q -4.79,-9.78 -10.29,-18.54 c -4.26,-6.78 -8.4,-9.7 -15.39,-13.45 q -3.2,-1.7 -8.08,-4 -34.13,-16.07 -68.17,-32.33 -5.59,-2.67 -18.22,-8.19 -14.41,-6.3 -28.26,-13.76 c -8.86,-4.78 -30.65,-16.69 -35.97,-0.92 q -0.85,2.51 -1.75,5.1 -0.17,0.48 0.32,0.61 1.36,0.36 1.78,-0.87 c 2.18,-6.51 3.8,-12.37 12.37,-10.98 q 7.84,1.27 15.68,5.09 17.33,8.45 34.87,16.41 c 14.64,6.65 29.27,13.77 43.72,20.93 6.98,3.46 14.74,6.59 21.05,9.85 q 16.04,8.27 32.45,15.76 8.38,3.82 12.83,11.78 4.41,7.87 8.74,15.77 0.76,1.41 1.8,2.18 a 0.35,0.35 0 0 0 0.52,-0.44 z m 5.2,7.51 q -0.53,-0.84 -0.98,-0.34 a 0.46,0.43 -38.3 0 0 -0.07,0.49 c 4.04,8.09 12.9,14.8 22.25,13.92 a 0.33,0.33 0 0 0 0.03,-0.65 c -8.86,-1.65 -16.04,-5.15 -21.23,-13.42 z m 44.1,5.83 q -5.25,5.59 -12.64,7.61 -0.59,0.16 -0.06,0.46 0.36,0.22 0.98,0.09 c 3.42,-0.72 14.13,-4.98 13.65,-9.34 q -0.06,-0.52 -0.46,-0.18 -0.81,0.67 -1.47,1.36 z"
       id="path3018" />
    <path
       fill="#c4736d"
       d="m 58.45,726.83 c 2.95,10.36 14.91,16.13 24.95,17.49 q 11.97,1.62 22.49,0.02 a 0.2,0.2 0 0 1 0.17,0.35 q -0.56,0.54 -2.06,0.84 -13.06,2.65 -25.98,-0.64 -9.55,-2.44 -16.46,-9.47 c -2.06,-2.11 -4.53,-5.7 -3.43,-8.6 q 0.18,-0.48 0.32,0.01 z"
       id="path3026" />
    <path
       fill="#c4736d"
       d="m 305.66,842.63 a 0.35,0.35 0 0 1 -0.52,0.44 q -1.04,-0.77 -1.8,-2.18 -4.33,-7.9 -8.74,-15.77 -4.45,-7.96 -12.83,-11.78 -16.41,-7.49 -32.45,-15.76 c -6.31,-3.26 -14.07,-6.39 -21.05,-9.85 -14.45,-7.16 -29.08,-14.28 -43.72,-20.93 q -17.54,-7.96 -34.87,-16.41 -7.84,-3.82 -15.68,-5.09 c -8.57,-1.39 -10.19,4.47 -12.37,10.98 q -0.42,1.23 -1.78,0.87 -0.49,-0.13 -0.32,-0.61 0.9,-2.59 1.75,-5.1 c 5.32,-15.77 27.11,-3.86 35.97,0.92 q 13.85,7.46 28.26,13.76 12.63,5.52 18.22,8.19 34.04,16.26 68.17,32.33 4.88,2.3 8.08,4 c 6.99,3.75 11.13,6.67 15.39,13.45 q 5.5,8.76 10.29,18.54 z"
       id="path3048" />
    <path
       fill="#c4736d"
       d="m 179.48,751.25 59.37,29.94 0.03,0.29 a 0.72,0.72 0 0 1 -1.06,0.68 c -6.91,-3.81 -13.74,-7.67 -20.86,-11.18 q -17.97,-8.84 -35.88,-17.82 -2.61,-1.32 -1.6,-1.91 z"
       id="path3054" />
    <path
       fill="#b8b3bc"
       d="m 404.58,854.69 c 4.63333,5.9 5.72,12.18 3.26,18.84 -4.92,13.35 -24.58,17.65 -36.73,19.32 -0.98,0.14 -1.51,0.57 -2.25,1.09 -10.11333,7.16 -21.4,11.12333 -33.86,11.89 -8.82,0.54 -16.97333,-0.92 -24.46,-4.38 -11.87,-5.49 -14.56,-17.75 -22.14,-26.93 -10.98429,-18.63412 -68.83377,-43.27689 -164.76812,-73.76033 -6.17,-2.72 -14.9053,0.14549 -23.97188,0.94033 -15.34,-1.64 -40.3,-5.48 -44.83,-23.5 -1.493333,-5.94667 0.38,-11.34667 5.62,-16.2 13.65,12.77 32.32,13.12 48.3,5.74 8.62,-3.98 15.78,-7.18 24.82,-5.16 6.12667,1.37333 11.85333,3.18 17.18,5.42 35.77333,15 71.71667,31.66667 107.83,50 13.05,6.63 28.92,12.59 32.93,27.25 3.1,11.32 5.71,22.57 13.35,31.8 20.66,24.96 63.78,15.71 67.11,-18.09 0.0587,-0.5498 0.62836,-0.88963 1.14,-0.68 11.2,4.61333 21.69,3.41667 31.47,-3.59 z"
       id="path3058"
       sodipodi:nodetypes="cccccccccccccccccccc" />
    <path
       fill="#fde6d1"
       d="m 294.18,792.95 c -1.09,-0.64 -3.48,-1.35 -4.75,-1.4 -0.3,-0.0133 -0.53333,0.10333 -0.7,0.35 -1.44,2.19333 -1.71667,4.49 -0.83,6.89 0.12667,0.33333 0.34,0.59333 0.64,0.78 1.69333,1.00667 3.27667,1.3 4.75,0.88 3.81,-1.09 4.07,-5.63 0.89,-7.5 z m 33.34,7.97 10.05,-0.75 c 0.5241,-0.0371 0.91603,-0.49661 0.87,-1.02 l -0.29,-3.34 c -0.032,-0.43412 -0.40531,-0.76295 -0.84,-0.74 l -8.91,0.47 c -0.44715,0.025 -0.84845,0.27863 -1.06,0.67 -0.72,1.32667 -0.91333,2.71333 -0.58,4.16 0.0933,0.4 0.34667,0.58333 0.76,0.55 z m -1.99,14.2 c 6.05,-0.64 25.22,0.93 16.72,12.57 -0.18756,0.26537 0.12178,0.59791 0.4,0.43 3.68,-2.19 3.93,-5.88 1.73,-9.18 -3.82,-5.77 -13.66,-5.74 -19.4,-3.76 -0.0917,0.0301 -0.0917,0.15986 0,0.19 0.1,0.0333 0.18,0.01 0.24,-0.07 0.08,-0.1 0.18333,-0.16 0.31,-0.18 z"
       id="path3064"
       sodipodi:nodetypes="cccccccccccccccccccccccc" />
    <path
       fill="#fde6d1"
       d="m 406.42,805.76 -0.44,4.13 c -6.73,11.83 -22.17,10.66 -32.59,5.43 q -8.13,-4.09 -10.59,-6.39 -3.61,-3.37 -7.76,-6.05 -0.48,-0.31 -1.06,-0.28 l -3.73,0.16 a 0.65,0.65 0 0 1 -0.53,-1.07 l 1,-1.21 q 4.25,-2.78 5.86,-5.18 c 1.95,-2.91 3.6,-5.73 6.6,-7.71 7.21,-4.78 13.08,-6.49 21.35,-2.87 q 15.16,6.61 21.89,21.04 z"
       id="path3066" />
    <path
       fill="#f7bfae"
       d="m 349.82,799.08 -2.1,1.27 a 1.16,1.15 -83.7 0 1 -1.43,-1.79 l 5.25,-5.54 q 3,-2.42 6.55,-3.17 0.48,-0.1 0.15,0.25 z"
       id="path3072" />
    <path
       fill="#f7bfae"
       d="m 289.43,791.55 c 1.27,0.05 3.66,0.76 4.75,1.4 3.18,1.87 2.92,6.41 -0.89,7.5 q -2.21,0.63 -4.75,-0.88 -0.45,-0.28 -0.64,-0.78 -1.33,-3.6 0.83,-6.89 0.25,-0.37 0.7,-0.35 z"
       id="path3074" />
    <path
       fill="#d7958f"
       d="m 351.54,793.02 -5.25,5.54 a 1.16,1.15 -83.7 0 0 1.43,1.79 l 2.1,-1.27 q -0.39,0.68 0.9,1.4 l -1,1.21 a 0.65,0.65 0 0 0 0.53,1.07 l 3.73,-0.16 q 0.58,-0.03 1.06,0.28 4.15,2.68 7.76,6.05 2.46,2.3 10.59,6.39 c 10.42,5.23 25.86,6.4 32.59,-5.43 q 1.25,0.94 1.35,3.18 c 0.16,3.51 -3.11,8.44 -5.31,11.04 a 0.63,0.62 -59 0 0 0.24,0.98 l 0.65,0.26 c -11.28,10.74 -27.99,6.77 -37.23,-4.56 q -1.46,-4.23 -3.27,-9.08 -0.62,-1.65 -3.37,-3.75 -1.61,-1.23 -4.43,-2.14 -4.52,-1.45 -8.7,-3.73 c -5.84,-3.19 2.75,-8.24 5.63,-9.07 z"
       id="path3076" />
    <path
       fill="#e1b0ab"
       d="m 327.52,800.92 q -0.62,0.05 -0.76,-0.55 -0.5,-2.17 0.58,-4.16 a 1.29,1.28 12.5 0 1 1.06,-0.67 l 8.91,-0.47 a 0.8,0.8 0 0 1 0.84,0.74 l 0.29,3.34 a 0.94,0.94 0 0 1 -0.87,1.02 z"
       id="path3078" />
    <path
       fill="#f7bfae"
       d="m 406.42,805.76 q 3.29,7.88 4.41,15.66 c -3.06,5.04 -6.66,9.87 -12.77,10.97 q -0.57,0.1 -0.69,-0.46 -0.06,-0.26 0.07,-0.62 c 7.02,-3.57 9.05,-6.77 11.69,-14.31 q 0.15,-0.44 -0.33,-0.59 -0.4,-0.12 -0.54,0.27 -1.82,4.99 -5.35,8.67 l -0.65,-0.26 a 0.63,0.62 -59 0 1 -0.24,-0.98 c 2.2,-2.6 5.47,-7.53 5.31,-11.04 q -0.1,-2.24 -1.35,-3.18 z"
       id="path3084" />
    <path
       fill="#c4736d"
       d="m 325.22,815.3 q -0.09,0.12 -0.24,0.07 a 0.1,0.1 0 0 1 0,-0.19 c 5.74,-1.98 15.58,-2.01 19.4,3.76 2.2,3.3 1.95,6.99 -1.73,9.18 a 0.3,0.3 0 0 1 -0.4,-0.43 c 8.5,-11.64 -10.67,-13.21 -16.72,-12.57 q -0.19,0.03 -0.31,0.18 z"
       id="path3088" />
    <path
       fill="#a44332"
       d="m 397.44,831.31 q -8,2.05 -16.37,1.29 c -6.86,-0.62 -10.93,-5.62 -15.51,-9.94 q 0.57,-0.51 0.12,-1.87 c 9.24,11.33 25.95,15.3 37.23,4.56 q 3.53,-3.68 5.35,-8.67 0.14,-0.39 0.54,-0.27 0.48,0.15 0.33,0.59 c -2.64,7.54 -4.67,10.74 -11.69,14.31 z"
       id="path3090" />
    <path
       fill="#d7958f"
       d="m 410.83,821.42 c 3.62,20.52 -9.52,39.63 -32.33,33.92 q -3.27,-0.82 -5.61,-3.07 -0.37,-0.36 -0.44,-0.88 -1.41,-10.09 -3.69,-16.89 -2.32,-6.9 -3.2,-11.84 c 4.58,4.32 8.65,9.32 15.51,9.94 q 8.37,0.76 16.37,-1.29 -0.13,0.36 -0.07,0.62 0.12,0.56 0.69,0.46 c 6.11,-1.1 9.71,-5.93 12.77,-10.97 z"
       id="path3092" />
    <path
       fill="#f6ccbb"
       d="m 363.43,828.45 0.69,2.59 q -0.51,3.54 -1.28,7.06 c -0.68,3.14 -2.39,5.22 -4.28,7.68 a 0.31,0.31 0 0 1 -0.55,-0.23 q 1.36,-9.04 4.44,-17.62 a 0.43,0.43 0 0 1 0.81,0 z"
       id="path3096" />
    <path
       fill="#c4736d"
       d="m 310.86,850.14 c 5.19,8.27 12.37,11.77 21.23,13.42 a 0.33,0.33 0 0 1 -0.03,0.65 c -9.35,0.88 -18.21,-5.83 -22.25,-13.92 a 0.46,0.43 -38.3 0 1 0.07,-0.49 q 0.45,-0.5 0.98,0.34 z"
       id="path3106" />
    <path
       fill="#f6ccbb"
       d="m 354.96,855.97 q 0.66,-0.69 1.47,-1.36 0.4,-0.34 0.46,0.18 c 0.48,4.36 -10.23,8.62 -13.65,9.34 q -0.62,0.13 -0.98,-0.09 -0.53,-0.3 0.06,-0.46 7.39,-2.02 12.64,-7.61 z"
       id="path3108" />
  </g>
</svg>
